<svg version="1.2" xmlns="http://www.w3.org/2000/svg" viewBox="0 0 1000 1000" width="500" height="500">
	<title>logoBRANCO-svg</title>
	<style>
		.s0 { fill: #ffffff } 
		.s1 { fill: #f26b34 } 
	</style>
	<g id="Layer">
		<g id="Layer">
			<g id="Layer">
				<path id="Layer" fill-rule="evenodd" class="s0" d="m425.4 604.5l20.6 49.6h-5.2l-6.4-15.5h-22.3l-6.4 15.5h-5.2l20.7-49.6zm7.8 30.2l-10-24.5-10.1 24.5z"/>
				<path id="Layer" class="s0" d="m334.4 604.5h4.9v49.6h-4.9z"/>
				<path id="Layer" class="s0" d="m489.7 640.9l4 2.1c-0.8 1.7-1.8 3.2-3.1 4.6-1.3 1.4-2.8 2.5-4.4 3.5-1.6 1-3.4 1.7-5.2 2.3-1.9 0.5-3.7 0.9-5.5 1l-2 3.2c0.5-0.1 0.9-0.3 1.4-0.3 0.5-0.1 0.9-0.1 1.3-0.1 1.7 0 2.9 0.4 3.9 1.1 0.9 0.7 1.4 1.8 1.4 3.2 0 1.5-0.6 2.8-1.8 3.6-1.2 0.9-3 1.3-5.3 1.3-1.4 0-2.6-0.1-3.8-0.4-1.1-0.2-2.2-0.5-3.1-0.9l1.2-2.2c0.7 0.4 1.6 0.6 2.7 0.9 1.1 0.3 2.3 0.4 3.5 0.4 2.7 0 4-0.8 4-2.4 0-1-0.3-1.6-0.9-2-0.6-0.4-1.4-0.6-2.5-0.6-1 0-2 0.1-3.1 0.3-1.1 0.2-1.9 0.5-2.5 0.7l3.1-5.7c-3.2-0.2-6.2-1.1-8.9-2.6-2.7-1.6-5-3.5-6.9-5.9-1.9-2.4-3.4-5-4.5-8-1.1-2.9-1.6-5.9-1.6-9 0-3 0.6-5.9 1.6-8.9 1.1-2.9 2.6-5.6 4.6-7.9 2-2.3 4.5-4.2 7.4-5.7 2.9-1.5 6.3-2.2 10-2.2 4.4 0 8.2 1 11.3 3q4.7 3 6.9 7.8l-3.8 2.4c-0.8-1.6-1.8-3-2.9-4.1-1.2-1.1-2.4-2-3.7-2.7-1.3-0.7-2.6-1.2-4-1.5-1.4-0.3-2.8-0.5-4.1-0.5-3 0-5.6 0.6-7.9 1.8-2.3 1.2-4.2 2.7-5.8 4.7-1.5 2-2.7 4.2-3.5 6.6-0.8 2.4-1.2 4.9-1.2 7.4 0 2.8 0.4 5.4 1.4 7.9 0.9 2.5 2.2 4.8 3.9 6.7 1.7 1.9 3.6 3.5 5.9 4.6 2.3 1.1 4.7 1.7 7.4 1.7 1.4 0 2.8-0.2 4.3-0.5 1.5-0.4 2.9-0.9 4.3-1.7 1.4-0.8 2.6-1.8 3.8-2.9 1.2-1.1 2.2-2.5 2.7-4.1z"/>
				<path id="Layer" class="s0" d="m390.6 640.9l4 2.1c-0.8 1.8-2 3.5-3.4 4.9q-2.1 2.1-4.8 3.6c-1.8 0.9-3.6 1.7-5.6 2.2-1.9 0.5-3.9 0.8-5.8 0.8-3.4 0-6.6-0.7-9.4-2.2-2.8-1.5-5.3-3.4-7.3-5.8-2.1-2.4-3.7-5.2-4.8-8.2-1.1-3-1.7-6.1-1.7-9.3 0-3 0.6-5.9 1.6-8.9 1.1-2.9 2.6-5.6 4.6-7.9 2-2.3 4.5-4.2 7.4-5.7 2.9-1.5 6.3-2.2 10-2.2 4.4 0 8.2 1 11.3 3q4.6 3 6.9 7.8l-3.8 2.4c-0.8-1.6-1.8-3-2.9-4.1-1.2-1.1-2.4-2-3.7-2.7-1.3-0.7-2.6-1.2-4-1.5-1.4-0.3-2.8-0.5-4.1-0.5-3 0-5.6 0.6-7.9 1.8-2.3 1.2-4.2 2.7-5.8 4.7-1.5 2-2.7 4.2-3.5 6.6-0.8 2.4-1.2 4.9-1.2 7.4 0 2.8 0.4 5.4 1.4 7.9 0.9 2.5 2.2 4.8 3.9 6.7 1.7 1.9 3.6 3.5 5.9 4.6 2.3 1.1 4.7 1.7 7.4 1.7 1.4 0 2.8-0.2 4.3-0.5 1.5-0.4 2.9-0.9 4.3-1.7 1.4-0.8 2.6-1.8 3.8-2.9 1.2-1.1 2.1-2.5 2.9-4.1z"/>
				<path id="Layer" class="s0" d="m531.1 590.6c0.1-0.4 0.1-0.6 0.1-0.7h2.9c0 0.2-0.1 0.7-0.3 1.4-0.2 0.7-0.5 1.5-1 2.2-0.5 0.8-1.2 1.4-2.1 2-1 0.6-2.1 0.9-3.5 0.9-1.1 0-2-0.1-2.8-0.4-0.8-0.2-1.5-0.6-2.2-0.9-0.7-0.4-1.4-0.7-2-1-0.7-0.4-1.4-0.5-2.1-0.5-0.8 0-1.5 0.2-1.9 0.5-0.4 0.3-0.7 0.7-1 1.1-0.3 0.4-0.4 0.8-0.5 1.1-0.1 0.4-0.1 0.6-0.1 0.7h-2.9c0-0.2 0-0.7 0.2-1.4 0.1-0.7 0.4-1.5 0.9-2.2 0.5-0.8 1.2-1.4 2-2 0.8-0.6 1.9-0.9 3.2-0.9 0.9 0 1.8 0.2 2.5 0.5 0.8 0.3 1.4 0.6 2.1 1 0.7 0.4 1.3 0.7 2 1 0.6 0.4 1.4 0.5 2.3 0.5 0.9 0 1.6-0.2 2.1-0.5 0.5-0.3 0.9-0.7 1.2-1.1 0.2-0.4 0.4-0.8 0.9-1.3z"/>
				<path id="Layer" fill-rule="evenodd" class="s0" d="m199.2 635l12.3 18.9h-5.5l-11.7-18.3h-14.7v18.3h-4.9v-49.6h20.9c2.1 0 4.1 0.5 5.9 1.4 1.7 0.9 3.3 2.1 4.6 3.6 1.3 1.5 2.3 3.1 3 5 0.7 1.9 1.1 3.8 1.1 5.7 0 1.8-0.3 3.5-0.8 5.2-0.5 1.7-1.2 3.2-2.2 4.5-1 1.4-2.1 2.5-3.5 3.4-1.3 0.9-2.9 1.5-4.5 1.9zm-19.7-3.6h16.3q2.1 0 3.9-0.9c1.1-0.6 2.2-1.4 3-2.5 0.9-1 1.5-2.2 2-3.6 0.5-1.4 0.7-2.8 0.7-4.3 0-1.5-0.3-2.9-0.8-4.3-0.6-1.4-1.3-2.6-2.2-3.6-0.9-1-2-1.8-3.2-2.4-1.3-0.6-2.5-0.9-3.9-0.9h-15.8z"/>
				<path id="Layer" class="s0" d="m133.5 649.8h28.4v4.3h-33.3v-49.6h32.7v4.4h-27.8v17.8h24.2v4.1h-24.2z"/>
				<path id="Layer" class="s0" d="m112.7 640.9l4 2.1c-0.8 1.8-2 3.5-3.4 4.9q-2.1 2.1-4.8 3.6c-1.7 0.9-3.6 1.7-5.6 2.2-2 0.5-3.9 0.8-5.8 0.8-3.4 0-6.6-0.7-9.4-2.2-2.8-1.5-5.3-3.4-7.3-5.8-2.1-2.4-3.7-5.2-4.8-8.2-1.1-3-1.7-6.1-1.7-9.3 0-3 0.6-5.9 1.6-8.9 1.1-2.9 2.6-5.6 4.6-7.9 2-2.3 4.5-4.2 7.4-5.7 2.9-1.5 6.3-2.2 10-2.2 4.4 0 8.2 1 11.3 3q4.6 3 6.9 7.8l-3.8 2.4c-0.8-1.6-1.8-3-2.9-4.1-1.2-1.1-2.4-2-3.7-2.7-1.4-0.7-2.7-1.2-4.1-1.5-1.4-0.3-2.8-0.5-4.1-0.5-3 0-5.6 0.6-7.9 1.8-2.3 1.2-4.2 2.7-5.8 4.7-1.5 2-2.7 4.2-3.5 6.6-0.8 2.4-1.2 4.9-1.2 7.4 0 2.8 0.4 5.4 1.4 7.9 0.9 2.5 2.2 4.8 3.9 6.7 1.7 1.9 3.6 3.5 5.9 4.6 2.3 1.1 4.7 1.7 7.4 1.7 1.4 0 2.8-0.2 4.3-0.5 1.5-0.4 2.9-0.9 4.3-1.7 1.4-0.8 2.6-1.8 3.8-2.9 1.2-1.1 2.2-2.5 3-4.1z"/>
				<path id="Layer" class="s0" d="m269 604.5h4.9v49.6h-4.9z"/>
				<path id="Layer" class="s0" d="m217.9 604.5h40.2v4.4h-17.7v45.2h-4.9v-45.2h-17.6z"/>
				<path id="Layer" class="s0" d="m289.8 604.5h32.5v4.4h-27.7v18.2h23.4v4h-23.4v23h-4.8z"/>
				<path id="Layer" class="s0" d="m760 604.5h4.9v49.6h-4.9z"/>
				<path id="Layer" fill-rule="evenodd" class="s0" d="m524.7 604.5l20.6 49.6h-5.2l-6.4-15.5h-22.3l-6.4 15.5h-5.2l20.7-49.6zm7.8 30.2l-10-24.5-10.1 24.5z"/>
				<path id="Layer" fill-rule="evenodd" class="s0" d="m670.3 619.7q1.5 4.5 1.5 9.6c0 3.7-0.6 7.2-1.7 10.2q-1.6 4.5-4.8 7.8c-2.1 2.1-4.6 3.8-7.5 5-2.9 1.2-6.2 1.8-9.8 1.8h-16.8v-49.6h16.8c4 0 7.4 0.7 10.4 2 3 1.3 5.4 3.1 7.4 5.3 2 2.2 3.5 4.8 4.5 7.9zm-3.3 9.6c0-3-0.5-5.7-1.3-8.2-0.9-2.5-2.1-4.7-3.7-6.5-1.6-1.8-3.6-3.2-5.9-4.2-2.3-1-5-1.5-8-1.5h-11.9v40.9h11.9c3 0 5.7-0.6 8.1-1.6 2.4-1 4.3-2.5 5.9-4.3 1.6-1.8 2.8-4 3.6-6.5 0.8-2.5 1.2-5.2 1.3-8.1z"/>
				<path id="Layer" class="s0" d="m684.6 604.5h4.9v49.6h-4.9z"/>
				<path id="Layer" class="s0" d="m728.6 634.1v-4.3h19.8v0.5c0 0.2 0 0.5 0 0.8q0 0.4 0 0.9v0.7c-0.2 2.9-1 5.6-2.2 8.3-1.2 2.7-2.8 5-4.8 7q-2.8 3-6.9 4.8-4 1.8-8.7 1.8c-3.4 0-6.6-0.7-9.5-2.1q-4.3-2.3-7.5-5.7c-2.1-2.4-3.7-5.1-4.9-8.1-1.1-3.1-1.7-6.2-1.7-9.4 0-3.3 0.5-6.4 1.7-9.4 1.2-3 2.8-5.7 4.9-8 2-2.4 4.5-4.2 7.4-5.6 2.9-1.4 6.1-2.1 9.5-2.1 4.2 0 7.9 0.9 11.1 2.9 3.3 1.9 5.9 4.5 7.9 7.7l-3.8 3.1c-0.7-1.2-1.5-2.4-2.5-3.5-1-1.1-2.2-2.1-3.5-3-1.3-0.9-2.7-1.6-4.3-2.1-1.6-0.5-3.3-0.8-5.1-0.8-2.8 0-5.3 0.6-7.6 1.8-2.3 1.2-4.2 2.7-5.8 4.7-1.6 2-2.8 4.2-3.7 6.7-0.9 2.5-1.3 5-1.3 7.6 0 2.6 0.4 5.1 1.3 7.6 0.8 2.5 2.1 4.7 3.7 6.6 1.6 2 3.5 3.5 5.8 4.7q3.5 1.8 7.5 1.8c2.4 0 4.6-0.4 6.6-1.3 2-0.9 3.8-2.1 5.3-3.6 1.5-1.5 2.8-3.2 3.8-5.1 1-1.9 1.7-3.8 2.1-5.9h-14.5z"/>
				<path id="Layer" class="s0" d="m877.6 649.8h28.6v4.3h-33.5v-49.6h4.9z"/>
				<path id="Layer" fill-rule="evenodd" class="s0" d="m595.6 620.1c1.1 3 1.7 6.1 1.7 9.2 0 3.3-0.6 6.5-1.8 9.5-1.2 3-2.8 5.7-4.9 8-2.1 2.3-4.6 4.1-7.4 5.5-2.8 1.4-5.9 2.1-9.2 2.1-3.5 0-6.6-0.7-9.5-2.1-2.9-1.5-5.3-3.4-7.4-5.7-2-2.4-3.6-5.1-4.7-8.1-1.1-3-1.7-6.1-1.7-9.3 0-3.3 0.6-6.5 1.8-9.5 1.2-3 2.8-5.7 4.9-8 2.1-2.3 4.6-4.1 7.4-5.5 2.8-1.4 5.9-2.1 9.2-2.1 3.5 0 6.6 0.7 9.5 2.2 2.8 1.5 5.3 3.4 7.3 5.8 2.1 2.4 3.6 5.1 4.8 8zm-3.2 9.2c0-2.7-0.5-5.3-1.4-7.8-0.9-2.5-2.2-4.7-3.8-6.6-1.6-1.9-3.6-3.5-5.8-4.6-2.2-1.1-4.7-1.7-7.4-1.7-2.8 0-5.3 0.6-7.6 1.8-2.3 1.2-4.2 2.7-5.8 4.7-1.6 1.9-2.8 4.1-3.7 6.6-0.9 2.4-1.3 4.9-1.3 7.5 0 2.7 0.4 5.3 1.3 7.8 0.9 2.5 2.2 4.7 3.8 6.6 1.6 1.9 3.6 3.5 5.8 4.6 2.3 1.1 4.8 1.7 7.5 1.7 2.8 0 5.3-0.6 7.6-1.8 2.3-1.2 4.2-2.7 5.8-4.7 1.6-1.9 2.8-4.1 3.7-6.6 0.8-2.4 1.2-4.9 1.3-7.5z"/>
				<path id="Layer" fill-rule="evenodd" class="s0" d="m841.6 604.5l20.6 49.6h-5.2l-6.4-15.5h-22.3l-6.4 15.5h-5.2l20.7-49.6zm7.8 30.2l-10-24.5-10.1 24.5z"/>
				<path id="Layer" class="s0" d="m775.8 604.5h40.2v4.4h-17.7v45.2h-4.8v-45.2h-17.7z"/>
				<path id="Layer" class="s0" d="m208.8 395.9h38.6v136.3h-38.6z"/>
				<path id="Layer" class="s0" d="m208.8 333.6h38.6v38.6h-38.6z"/>
				<path id="Layer" fill-rule="evenodd" class="s0" d="m899.9 452.8c4.3 11.1 6.5 22.8 6.5 34.9 0 2.8-0.2 5.4-0.4 7.8-0.3 2.4-0.5 4.4-0.7 6h-146.7c0.7 7.9 2.6 15.2 5.8 21.6 3.2 6.4 7.2 11.9 12.3 16.6q7.5 7 17.1 10.8c6.4 2.5 13.1 3.8 20.1 3.8 5.2 0 10.2-0.6 15.3-1.9 5-1.3 9.6-3.1 13.8-5.5 4.2-2.4 7.9-5.4 11.2-8.8 3.2-3.4 5.8-7.2 7.7-11.3l32.9 9.3c-6.3 13.6-16.7 24.6-31.3 33.2-14.5 8.6-31.5 12.9-50.9 12.9-14.3 0-27.2-2.5-38.9-7.4-11.6-5-21.6-11.6-29.9-20.1-8.3-8.5-14.7-18.4-19.3-29.6-4.5-11.2-6.8-23.1-6.8-35.7 0-12.6 2.3-24.6 6.8-35.9 4.6-11.4 11-21.3 19.3-29.9 8.3-8.6 18.2-15.4 29.9-20.3 11.6-4.9 24.7-7.4 39.2-7.4 14.2 0 27.1 2.5 38.7 7.6 11.6 5 21.4 11.7 29.6 20.1 8.2 8.4 14.4 18.1 18.7 29.2zm-31.6 22.5c-0.7-7.6-2.6-14.6-5.8-21-3.2-6.4-7.2-11.9-12.1-16.3-4.8-4.5-10.6-8-17.1-10.5-6.6-2.6-13.5-3.8-20.7-3.8-7.3 0-14.1 1.3-20.5 3.8-6.4 2.5-12.1 6-17 10.5-4.9 4.4-8.9 9.9-11.9 16.3-3 6.4-4.9 13.4-5.6 21z"/>
				<path id="Layer" class="s0" d="m713.5 526.4c0 17.2-6.6 30.7-19.8 40.7-13.2 9.9-31.1 14.9-53.7 14.9-14.7 0-29.3-2.3-43.9-7-14.6-4.7-27.1-11.4-37.6-20.1l15.4-24.1c11 7.8 21.9 13.7 32.6 17.7 10.7 4 21.7 6 32.9 6 11.4 0 20.4-2.1 27.1-6.5 6.7-4.4 10-10.6 10-18.6 0-7.6-3.7-13.1-11.2-16.5-7.5-3.4-19.1-7.2-35-11.3-11.4-3-21.2-5.8-29.4-8.6-8.2-2.7-14.9-5.9-20-9.6-5.1-3.6-8.9-7.9-11.2-12.7-2.3-4.8-3.5-10.6-3.5-17.5 0-9.2 1.8-17.3 5.4-24.4 3.7-7.1 8.7-13.1 15.1-18 6.4-5 14-8.7 22.6-11.2 8.6-2.5 18-3.8 28-3.8 13.8 0 26.6 2.1 38.5 6.2 11.9 4.2 22.6 10.1 31.9 17.9l-16.5 22.7c-17.1-13.3-35.2-19.9-54.3-19.9-9.8 0-18 2-24.7 6-6.7 4-10 10.4-10 19.1q0 5.6 2.1 9.3c1.4 2.5 3.6 4.7 6.8 6.5 3.2 1.9 7.3 3.5 12.3 5 5 1.5 11.2 3.2 18.7 5 12.3 2.9 23 5.9 32 8.9 8.9 3 16.4 6.5 22.2 10.5 5.9 4 10.2 8.7 13 14.1 2.8 5.4 4.2 11.9 4.2 19.3z"/>
				<path id="Layer" class="s0" d="m357 430.2c-5.6 0-11.2 1.1-16.8 3.2-5.6 2.1-10.9 5-15.8 8.9-4.9 3.9-9.2 8.4-13.1 13.7-3.8 5.2-6.8 11-8.9 17.3v108.8h-38.5v-186.2h35v39.9c7-12.3 17.2-22.1 30.5-29.2 13.3-7.1 28-10.7 44.1-10.7q16.5 0 27 6c7 4 12.5 9.4 16.6 16.3 4.1 6.9 7 14.8 8.6 23.8 1.7 9 2.5 18.5 2.5 28.5v14l83.3-88.6h42l-74.3 80.2 74.9 106.1h-41l-58.5-84.4-26.5 25v59.4h-38.5v-102.6c0-17.2-2.7-29.8-8.2-37.6-5.4-7.8-13.6-11.7-24.4-11.8z"/>
				<path id="Layer" class="s0" d="m247.4 582.2h-172.6v-248.6h39.3v213.9h133.3z"/>
				<path id="Layer" fill-rule="evenodd" class="s0" d="m926.1 412c0 2.3-0.4 4.4-1.2 6.4q-1.2 3-3.3 5.1c-1.4 1.4-3.1 2.6-5 3.4-1.9 0.8-4 1.2-6.2 1.2q-3.4 0-6.3-1.2c-1.9-0.8-3.6-2-5-3.4q-2.1-2.1-3.3-5.1c-0.8-1.9-1.2-4.1-1.2-6.4 0-2.3 0.4-4.4 1.2-6.4q1.2-3 3.3-5.1c1.4-1.5 3.1-2.6 5-3.4q2.9-1.2 6.3-1.2c2.2 0 4.3 0.4 6.2 1.2 1.9 0.9 3.6 2 5 3.4q2.1 2.1 3.3 5.1c0.8 2 1.2 4.1 1.2 6.4zm-1.5 0.1c0-2.1-0.4-4-1.1-5.8-0.7-1.7-1.7-3.3-3-4.6-1.3-1.3-2.8-2.4-4.5-3.1-1.8-0.7-3.6-1.1-5.7-1.1-2.1 0-4 0.4-5.7 1.1-1.8 0.8-3.3 1.8-4.5 3.1-1.2 1.3-2.2 2.8-2.9 4.6-0.7 1.8-1.1 3.7-1.1 5.8 0 2.1 0.4 4 1.1 5.8 0.7 1.8 1.7 3.4 2.9 4.7 1.3 1.3 2.8 2.4 4.5 3.1 1.8 0.7 3.7 1.1 5.7 1.1 2 0 3.9-0.4 5.6-1.1q2.6-1 4.5-3c1.3-1.3 2.3-2.8 3-4.6 0.8-1.8 1.1-3.8 1.2-6z"/>
				<path id="Layer" fill-rule="evenodd" class="s0" d="m913.5 414.2l4.7 7.8h-2.5l-4.5-7.5h-5v7.5h-2.3v-20.2h8.1c0.8 0 1.6 0.2 2.3 0.6q1.1 0.6 1.8 1.5c0.5 0.7 0.9 1.3 1.2 2.1 0.3 0.8 0.4 1.5 0.4 2.3q0 2.3-1.2 3.9c-0.8 1.2-1.8 1.9-3 2zm-7.4-1.5h5.9c1.1 0 2-0.4 2.6-1.2 0.6-0.9 0.9-1.9 0.9-3.1 0-1.3-0.3-2.3-1-3.1q-1-1.2-2.7-1.2h-5.7z"/>
			</g>
			<path id="Layer" class="s1" d="m478.6 462.3h130.4v32.2h-130.4z"/>
		</g>
	</g>
</svg>