<?xml version="1.0" encoding="utf-8"?>
<!-- Generator: Adobe Illustrator 21.1.0, SVG Export Plug-In . SVG Version: 6.00 Build 0)  -->
<svg version="1.1" id="Layer_1" xmlns="http://www.w3.org/2000/svg" xmlns:xlink="http://www.w3.org/1999/xlink" x="0px" y="0px"
	 viewBox="0 0 1000 1000" style="enable-background:new 0 0 1000 1000;" xml:space="preserve">
<style type="text/css">
	.st0{fill:#FFFFFF;}
	.st1{fill-rule:evenodd;clip-rule:evenodd;fill:#F26B34;}
</style>
<g>
	<g>
		<g>
			<path class="st0" d="M421.2,604.5l-20.7,49.6h5.2l6.4-15.5h22.3l6.4,15.5h5.2l-20.6-49.6H421.2z M413.1,634.7l10.1-24.5l10,24.5
				H413.1z"/>
			<rect x="334.4" y="604.5" class="st0" width="4.9" height="49.6"/>
			<path class="st0" d="M487,645c-1.2,1.1-2.4,2.1-3.8,2.9c-1.4,0.8-2.8,1.3-4.3,1.7c-1.5,0.3-2.9,0.5-4.3,0.5
				c-2.7,0-5.1-0.6-7.4-1.7c-2.3-1.1-4.2-2.7-5.9-4.6c-1.7-1.9-3-4.2-3.9-6.7c-1-2.5-1.4-5.1-1.4-7.9c0-2.5,0.4-5,1.2-7.4
				c0.8-2.4,2-4.6,3.5-6.6c1.6-2,3.5-3.5,5.8-4.7c2.3-1.2,4.9-1.8,7.9-1.8c1.3,0,2.7,0.2,4.1,0.5c1.4,0.3,2.7,0.8,4,1.5
				c1.3,0.7,2.5,1.6,3.7,2.7c1.1,1.1,2.1,2.5,2.9,4.1l3.8-2.4c-1.5-3.2-3.8-5.8-6.9-7.8c-3.1-2-6.9-3-11.3-3c-3.7,0-7.1,0.7-10,2.2
				c-2.9,1.5-5.4,3.4-7.4,5.7c-2,2.3-3.5,5-4.6,7.9c-1,3-1.6,5.9-1.6,8.9c0,3.1,0.5,6.1,1.6,9c1.1,3,2.6,5.6,4.5,8
				c1.9,2.4,4.2,4.3,6.9,5.9c2.7,1.5,5.7,2.4,8.9,2.6l-3.1,5.7c0.6-0.2,1.4-0.5,2.5-0.7c1.1-0.2,2.1-0.3,3.1-0.3
				c1.1,0,1.9,0.2,2.5,0.6c0.6,0.4,0.9,1,0.9,2c0,1.6-1.3,2.4-4,2.4c-1.2,0-2.4-0.1-3.5-0.4c-1.1-0.3-2-0.5-2.7-0.9l-1.2,2.2
				c0.9,0.4,2,0.7,3.1,0.9c1.2,0.3,2.4,0.4,3.8,0.4c2.3,0,4.1-0.4,5.3-1.3c1.2-0.8,1.8-2.1,1.8-3.6c0-1.4-0.5-2.5-1.4-3.2
				c-1-0.7-2.2-1.1-3.9-1.1c-0.4,0-0.8,0-1.3,0.1c-0.5,0-0.9,0.2-1.4,0.3l2-3.2c1.8-0.1,3.6-0.5,5.5-1c1.8-0.6,3.6-1.3,5.2-2.3
				c1.6-1,3.1-2.1,4.4-3.5c1.3-1.4,2.3-2.9,3.1-4.6l-4-2.1C489.2,642.5,488.2,643.9,487,645z"/>
			<path class="st0" d="M387.7,645c-1.2,1.1-2.4,2.1-3.8,2.9c-1.4,0.8-2.8,1.3-4.3,1.7c-1.5,0.3-2.9,0.5-4.3,0.5
				c-2.7,0-5.1-0.6-7.4-1.7c-2.3-1.1-4.2-2.7-5.9-4.6c-1.7-1.9-3-4.2-3.9-6.7c-1-2.5-1.4-5.1-1.4-7.9c0-2.5,0.4-5,1.2-7.4
				c0.8-2.4,2-4.6,3.5-6.6c1.6-2,3.5-3.5,5.8-4.7c2.3-1.2,4.9-1.8,7.9-1.8c1.3,0,2.7,0.2,4.1,0.5c1.4,0.3,2.7,0.8,4,1.5
				c1.3,0.7,2.5,1.6,3.7,2.7c1.1,1.1,2.1,2.5,2.9,4.1l3.8-2.4c-1.5-3.2-3.8-5.8-6.9-7.8c-3.1-2-6.9-3-11.3-3c-3.7,0-7.1,0.7-10,2.2
				c-2.9,1.5-5.4,3.4-7.4,5.7c-2,2.3-3.5,5-4.6,7.9c-1,3-1.6,5.9-1.6,8.9c0,3.2,0.6,6.3,1.7,9.3c1.1,3,2.7,5.8,4.8,8.2
				c2,2.4,4.5,4.3,7.3,5.8c2.8,1.5,6,2.2,9.4,2.2c1.9,0,3.9-0.3,5.8-0.8c2-0.5,3.8-1.3,5.6-2.2c1.8-1,3.4-2.2,4.8-3.6
				c1.4-1.4,2.6-3.1,3.4-4.9l-4-2.1C389.8,642.5,388.9,643.9,387.7,645z"/>
			<path class="st0" d="M530.2,591.9c-0.3,0.4-0.7,0.8-1.2,1.1c-0.5,0.3-1.2,0.5-2.1,0.5c-0.9,0-1.7-0.1-2.3-0.5
				c-0.7-0.3-1.3-0.6-2-1c-0.7-0.4-1.3-0.7-2.1-1c-0.7-0.3-1.6-0.5-2.5-0.5c-1.3,0-2.4,0.3-3.2,0.9c-0.8,0.6-1.5,1.2-2,2
				c-0.5,0.7-0.8,1.5-0.9,2.2c-0.2,0.7-0.2,1.2-0.2,1.4h2.9c0-0.1,0-0.3,0.1-0.7c0.1-0.3,0.2-0.7,0.5-1.1c0.3-0.4,0.6-0.8,1-1.1
				c0.4-0.3,1.1-0.5,1.9-0.5c0.7,0,1.4,0.1,2.1,0.5c0.6,0.3,1.3,0.6,2,1c0.7,0.3,1.4,0.7,2.2,0.9c0.8,0.3,1.7,0.4,2.8,0.4
				c1.4,0,2.5-0.3,3.5-0.9c0.9-0.6,1.6-1.2,2.1-2c0.5-0.7,0.8-1.5,1-2.2c0.2-0.7,0.3-1.2,0.3-1.4h-2.9c0,0.1,0,0.3-0.1,0.7
				C530.6,591.1,530.4,591.5,530.2,591.9z"/>
			<path class="st0" d="M203.7,633.1c1.4-0.9,2.5-2,3.5-3.4c1-1.3,1.7-2.8,2.2-4.5c0.5-1.7,0.8-3.4,0.8-5.2c0-1.9-0.4-3.8-1.1-5.7
				c-0.7-1.9-1.7-3.5-3-5c-1.3-1.5-2.9-2.7-4.6-3.6c-1.8-0.9-3.8-1.4-5.9-1.4h-20.9v49.6h4.9v-18.3h14.7l11.7,18.3h5.5L199.2,635
				C200.8,634.6,202.4,634,203.7,633.1z M179.5,631.5v-22.6h15.8c1.4,0,2.6,0.3,3.9,0.9c1.2,0.6,2.3,1.4,3.2,2.4
				c0.9,1,1.6,2.2,2.2,3.6c0.5,1.4,0.8,2.8,0.8,4.3c0,1.5-0.2,2.9-0.7,4.3c-0.5,1.4-1.1,2.6-2,3.6c-0.8,1.1-1.9,1.9-3,2.5
				c-1.2,0.6-2.5,0.9-3.9,0.9H179.5z"/>
			<polygon class="st0" points="133.5,630.8 157.7,630.8 157.7,626.7 133.5,626.7 133.5,608.9 161.3,608.9 161.3,604.5 128.6,604.5 
				128.6,654.1 161.9,654.1 161.9,649.8 133.5,649.8 			"/>
			<path class="st0" d="M109.7,645c-1.2,1.1-2.4,2.1-3.8,2.9c-1.4,0.8-2.8,1.3-4.3,1.7c-1.5,0.3-2.9,0.5-4.3,0.5
				c-2.7,0-5.1-0.6-7.4-1.7c-2.3-1.1-4.2-2.7-5.9-4.6c-1.7-1.9-3-4.2-3.9-6.7c-1-2.5-1.4-5.1-1.4-7.9c0-2.5,0.4-5,1.2-7.4
				c0.8-2.4,2-4.6,3.5-6.6c1.6-2,3.5-3.5,5.8-4.7c2.3-1.2,4.9-1.8,7.9-1.8c1.3,0,2.7,0.2,4.1,0.5c1.4,0.3,2.7,0.8,4.1,1.5
				c1.3,0.7,2.5,1.6,3.7,2.7c1.1,1.1,2.1,2.5,2.9,4.1l3.8-2.4c-1.5-3.2-3.8-5.8-6.9-7.8c-3.1-2-6.9-3-11.3-3c-3.7,0-7.1,0.7-10,2.2
				c-2.9,1.5-5.4,3.4-7.4,5.7c-2,2.3-3.5,5-4.6,7.9c-1,3-1.6,5.9-1.6,8.9c0,3.2,0.6,6.3,1.7,9.3c1.1,3,2.7,5.8,4.8,8.2
				c2,2.4,4.5,4.3,7.3,5.8c2.8,1.5,6,2.2,9.4,2.2c1.9,0,3.8-0.3,5.8-0.8c2-0.5,3.9-1.3,5.6-2.2c1.8-1,3.4-2.2,4.8-3.6
				c1.4-1.4,2.6-3.1,3.4-4.9l-4-2.1C111.9,642.5,110.9,643.9,109.7,645z"/>
			<rect x="269" y="604.5" class="st0" width="4.9" height="49.6"/>
			<polygon class="st0" points="217.9,608.9 235.5,608.9 235.5,654.1 240.4,654.1 240.4,608.9 258.1,608.9 258.1,604.5 217.9,604.5 
							"/>
			<polygon class="st0" points="289.8,654.1 294.6,654.1 294.6,631.1 318,631.1 318,627.1 294.6,627.1 294.6,608.9 322.3,608.9 
				322.3,604.5 289.8,604.5 			"/>
			<rect x="760" y="604.5" class="st0" width="4.9" height="49.6"/>
			<path class="st0" d="M520.5,604.5l-20.7,49.6h5.2l6.4-15.5h22.3l6.4,15.5h5.2l-20.6-49.6H520.5z M512.4,634.7l10.1-24.5l10,24.5
				H512.4z"/>
			<path class="st0" d="M665.8,611.8c-2-2.2-4.4-4-7.4-5.3c-3-1.3-6.4-2-10.4-2h-16.8v49.6h16.8c3.6,0,6.9-0.6,9.8-1.8
				c2.9-1.2,5.4-2.9,7.5-5c2.1-2.2,3.7-4.8,4.8-7.8c1.1-3,1.7-6.5,1.7-10.2c0-3.4-0.5-6.6-1.5-9.6
				C669.3,616.6,667.8,614,665.8,611.8z M665.7,637.4c-0.8,2.5-2,4.7-3.6,6.5c-1.6,1.8-3.5,3.3-5.9,4.3c-2.4,1-5.1,1.6-8.1,1.6
				h-11.9v-40.9h11.9c3,0,5.7,0.5,8,1.5c2.3,1,4.3,2.4,5.9,4.2c1.6,1.8,2.8,4,3.7,6.5c0.8,2.5,1.3,5.2,1.3,8.2
				C666.9,632.2,666.5,634.9,665.7,637.4z"/>
			<rect x="684.6" y="604.5" class="st0" width="4.9" height="49.6"/>
			<path class="st0" d="M728.7,634.1h14.5c-0.4,2.1-1.1,4-2.1,5.9c-1,1.9-2.3,3.6-3.8,5.1c-1.5,1.5-3.3,2.7-5.3,3.6
				c-2,0.9-4.2,1.3-6.6,1.3c-2.7,0-5.2-0.6-7.5-1.8c-2.3-1.2-4.2-2.7-5.8-4.7c-1.6-1.9-2.9-4.1-3.7-6.6c-0.9-2.5-1.3-5-1.3-7.6
				c0-2.6,0.4-5.1,1.3-7.6c0.9-2.5,2.1-4.7,3.7-6.7c1.6-2,3.5-3.5,5.8-4.7c2.3-1.2,4.8-1.8,7.6-1.8c1.8,0,3.5,0.3,5.1,0.8
				c1.6,0.5,3,1.2,4.3,2.1c1.3,0.9,2.5,1.9,3.5,3c1,1.1,1.8,2.3,2.5,3.5l3.8-3.1c-2-3.2-4.6-5.8-7.9-7.7c-3.2-2-6.9-2.9-11.1-2.9
				c-3.4,0-6.6,0.7-9.5,2.1c-2.9,1.4-5.4,3.2-7.4,5.6c-2.1,2.3-3.7,5-4.9,8c-1.2,3-1.7,6.1-1.7,9.4c0,3.2,0.6,6.3,1.7,9.4
				c1.2,3,2.8,5.7,4.9,8.1c2.1,2.3,4.6,4.2,7.5,5.7c2.9,1.4,6.1,2.1,9.5,2.1c3.1,0,6-0.6,8.7-1.8c2.7-1.2,5-2.8,6.9-4.8
				c2-2,3.6-4.3,4.8-7c1.2-2.7,2-5.4,2.2-8.3V632c0-0.3,0-0.6,0-0.9c0-0.3,0-0.6,0-0.8v-0.5h-19.8V634.1z"/>
			<polygon class="st0" points="877.6,604.5 872.7,604.5 872.7,654.1 906.2,654.1 906.2,649.8 877.6,649.8 			"/>
			<path class="st0" d="M590.8,612.1c-2-2.4-4.5-4.3-7.3-5.8c-2.9-1.5-6-2.2-9.5-2.2c-3.3,0-6.4,0.7-9.2,2.1
				c-2.8,1.4-5.3,3.2-7.4,5.5c-2.1,2.3-3.7,5-4.9,8c-1.2,3-1.8,6.2-1.8,9.5c0,3.2,0.6,6.3,1.7,9.3c1.1,3,2.7,5.7,4.7,8.1
				c2.1,2.3,4.5,4.2,7.4,5.7c2.9,1.4,6,2.1,9.5,2.1c3.3,0,6.4-0.7,9.2-2.1c2.8-1.4,5.3-3.2,7.4-5.5c2.1-2.3,3.7-5,4.9-8
				c1.2-3,1.8-6.2,1.8-9.5c0-3.1-0.6-6.2-1.7-9.2C594.4,617.2,592.9,614.5,590.8,612.1z M591.1,636.8c-0.9,2.5-2.1,4.7-3.7,6.6
				c-1.6,2-3.5,3.5-5.8,4.7c-2.3,1.2-4.8,1.8-7.6,1.8c-2.7,0-5.2-0.6-7.5-1.7c-2.2-1.1-4.2-2.7-5.8-4.6c-1.6-1.9-2.9-4.1-3.8-6.6
				c-0.9-2.5-1.3-5.1-1.3-7.8c0-2.6,0.4-5.1,1.3-7.5c0.9-2.5,2.1-4.7,3.7-6.6c1.6-2,3.5-3.5,5.8-4.7c2.3-1.2,4.8-1.8,7.6-1.8
				c2.7,0,5.2,0.6,7.4,1.7c2.2,1.1,4.2,2.7,5.8,4.6c1.6,1.9,2.9,4.1,3.8,6.6c0.9,2.5,1.4,5.1,1.4,7.8
				C592.3,631.9,591.9,634.4,591.1,636.8z"/>
			<path class="st0" d="M837.4,604.5l-20.7,49.6h5.2l6.4-15.5h22.3l6.4,15.5h5.2l-20.6-49.6H837.4z M829.3,634.7l10.1-24.5l10,24.5
				H829.3z"/>
			<polygon class="st0" points="775.8,608.9 793.5,608.9 793.5,654.1 798.3,654.1 798.3,608.9 816,608.9 816,604.5 775.8,604.5 			
				"/>
			<rect x="208.8" y="395.9" class="st0" width="38.6" height="136.3"/>
			<rect x="208.8" y="333.6" class="st0" width="38.6" height="38.6"/>
			<path class="st0" d="M881.2,423.6c-8.2-8.4-18-15.1-29.6-20.1c-11.6-5.1-24.5-7.6-38.7-7.6c-14.5,0-27.6,2.5-39.2,7.4
				c-11.7,4.9-21.6,11.7-29.9,20.3c-8.3,8.6-14.7,18.5-19.3,29.9c-4.5,11.3-6.8,23.3-6.8,35.9c0,12.6,2.3,24.5,6.8,35.7
				c4.6,11.2,11,21.1,19.3,29.6c8.3,8.5,18.3,15.1,29.9,20.1c11.7,4.9,24.6,7.4,38.9,7.4c19.4,0,36.4-4.3,50.9-12.9
				c14.6-8.6,25-19.6,31.3-33.2l-32.9-9.3c-1.9,4.1-4.5,7.9-7.7,11.3c-3.3,3.4-7,6.4-11.2,8.8c-4.2,2.4-8.8,4.2-13.8,5.5
				c-5.1,1.3-10.1,1.9-15.3,1.9c-7,0-13.7-1.3-20.1-3.8c-6.4-2.5-12.1-6.1-17.1-10.8c-5.1-4.7-9.1-10.2-12.3-16.6
				c-3.2-6.4-5.1-13.7-5.8-21.6h146.7c0.2-1.6,0.4-3.6,0.7-6c0.2-2.4,0.4-5,0.4-7.8c0-12.1-2.2-23.8-6.5-34.9
				C895.6,441.7,889.4,432,881.2,423.6z M757.6,475.3c0.7-7.6,2.6-14.6,5.6-21c3-6.4,7-11.9,11.9-16.3c4.9-4.5,10.6-8,17-10.5
				c6.4-2.5,13.2-3.8,20.5-3.8c7.2,0,14.1,1.2,20.7,3.8c6.5,2.5,12.3,6,17.1,10.5c4.9,4.4,8.9,9.9,12.1,16.3
				c3.2,6.4,5.1,13.4,5.8,21H757.6z"/>
			<path class="st0" d="M709.3,507.1c-2.8-5.4-7.1-10.1-13-14.1c-5.8-4-13.3-7.5-22.2-10.5c-9-3-19.7-6-32-8.9
				c-7.5-1.8-13.7-3.5-18.7-5c-5-1.5-9.1-3.1-12.3-5c-3.2-1.8-5.4-4-6.8-6.5c-1.4-2.5-2.1-5.6-2.1-9.3c0-8.7,3.3-15.1,10-19.1
				c6.7-4,14.9-6,24.7-6c19.1,0,37.2,6.6,54.3,19.9l16.5-22.7c-9.3-7.8-20-13.7-31.9-17.9c-11.9-4.1-24.7-6.2-38.5-6.2
				c-10,0-19.4,1.3-28,3.8c-8.6,2.5-16.2,6.2-22.6,11.2c-6.4,4.9-11.4,10.9-15.1,18c-3.6,7.1-5.4,15.2-5.4,24.4
				c0,6.9,1.2,12.7,3.5,17.5c2.3,4.8,6.1,9.1,11.2,12.7c5.1,3.7,11.8,6.9,20,9.6c8.2,2.8,18,5.6,29.4,8.6c15.9,4.1,27.5,7.9,35,11.3
				c7.5,3.4,11.2,8.9,11.2,16.5c0,8-3.3,14.2-10,18.6c-6.7,4.4-15.7,6.5-27.1,6.5c-11.2,0-22.2-2-32.9-6c-10.7-4-21.6-9.9-32.6-17.7
				l-15.4,24.1c10.5,8.7,23,15.4,37.6,20.1c14.6,4.7,29.2,7,43.9,7c22.6,0,40.5-5,53.7-14.9c13.2-10,19.8-23.5,19.8-40.7
				C713.5,519,712.1,512.5,709.3,507.1z"/>
			<path class="st0" d="M381.4,442c5.5,7.8,8.2,20.4,8.2,37.6v102.6h38.5v-59.4l26.5-25l58.5,84.4h41l-74.9-106.1l74.3-80.2h-42
				l-83.3,88.6v-14c0-10-0.8-19.5-2.5-28.5c-1.6-9-4.5-16.9-8.6-23.8c-4.1-6.9-9.6-12.3-16.6-16.3c-7-4-16-6-27-6
				c-16.1,0-30.8,3.6-44.1,10.7c-13.3,7.1-23.5,16.9-30.5,29.2v-39.9h-35v186.2h38.5V473.3c2.1-6.3,5.1-12.1,8.9-17.3
				c3.9-5.3,8.2-9.8,13.1-13.7c4.9-3.9,10.2-6.8,15.8-8.9c5.6-2.1,11.2-3.2,16.8-3.2C367.8,430.3,376,434.2,381.4,442z"/>
			<polygon class="st0" points="247.4,547.5 114.1,547.5 114.1,333.6 74.8,333.6 74.8,582.2 247.4,582.2 			"/>
			<path class="st0" d="M924.9,405.6c-0.8-2-1.9-3.7-3.3-5.1c-1.4-1.4-3.1-2.5-5-3.4c-1.9-0.8-4-1.2-6.2-1.2c-2.3,0-4.4,0.4-6.3,1.2
				c-1.9,0.8-3.6,1.9-5,3.4c-1.4,1.4-2.5,3.1-3.3,5.1c-0.8,2-1.2,4.1-1.2,6.4c0,2.3,0.4,4.5,1.2,6.4c0.8,2,1.9,3.7,3.3,5.1
				c1.4,1.4,3.1,2.6,5,3.4c1.9,0.8,4,1.2,6.3,1.2c2.2,0,4.3-0.4,6.2-1.2c1.9-0.8,3.6-2,5-3.4c1.4-1.4,2.5-3.1,3.3-5.1
				c0.8-2,1.2-4.1,1.2-6.4C926.1,409.7,925.7,407.6,924.9,405.6z M923.4,418.1c-0.7,1.8-1.7,3.3-3,4.6c-1.3,1.3-2.8,2.3-4.5,3
				c-1.7,0.7-3.6,1.1-5.6,1.1c-2,0-3.9-0.4-5.7-1.1c-1.7-0.7-3.2-1.8-4.5-3.1c-1.2-1.3-2.2-2.9-2.9-4.7c-0.7-1.8-1.1-3.7-1.1-5.8
				c0-2.1,0.4-4,1.1-5.8c0.7-1.8,1.7-3.3,2.9-4.6c1.2-1.3,2.7-2.3,4.5-3.1c1.7-0.7,3.6-1.1,5.7-1.1c2.1,0,3.9,0.4,5.7,1.1
				c1.7,0.7,3.2,1.8,4.5,3.1c1.3,1.3,2.3,2.9,3,4.6c0.7,1.8,1.1,3.7,1.1,5.8C924.5,414.3,924.2,416.3,923.4,418.1z"/>
			<path class="st0" d="M916.5,412.2c0.8-1.1,1.2-2.4,1.2-3.9c0-0.8-0.1-1.5-0.4-2.3c-0.3-0.8-0.7-1.4-1.2-2.1
				c-0.5-0.6-1.1-1.1-1.8-1.5c-0.7-0.4-1.5-0.6-2.3-0.6h-8.1v20.2h2.3v-7.5h5l4.5,7.5h2.5l-4.7-7.8
				C914.7,414.1,915.7,413.4,916.5,412.2z M906.1,412.6v-8.5h5.7c1.1,0,2,0.4,2.7,1.2c0.7,0.8,1,1.8,1,3.1c0,1.2-0.3,2.2-0.9,3.1
				c-0.6,0.8-1.5,1.2-2.6,1.2H906.1z"/>
		</g>
		<rect x="478.6" y="462.3" class="st1" width="130.4" height="32.2"/>
	</g>
</g>
</svg>
