<?xml version="1.0" encoding="utf-8"?>
<!-- Generator: Adobe Illustrator 21.1.0, SVG Export Plug-In . SVG Version: 6.00 Build 0)  -->
<svg version="1.1" id="Layer_1" xmlns="http://www.w3.org/2000/svg" xmlns:xlink="http://www.w3.org/1999/xlink" x="0px" y="0px"
	 viewBox="0 0 1000 1000" style="enable-background:new 0 0 1000 1000;" xml:space="preserve">
<style type="text/css">
	.st0{fill:#161616;}
	.st1{fill-rule:evenodd;clip-rule:evenodd;fill:#F26B34;}
</style>
<g>
	<g>
		<g>
			<path class="st0" d="M421.2,562.3l-20.7,49.6h5.2l6.4-15.5h22.3l6.4,15.5h5.2l-20.6-49.6H421.2z M413.1,592.6l10.1-24.5l10,24.5
				H413.1z"/>
			<rect x="334.4" y="562.3" class="st0" width="4.9" height="49.6"/>
			<path class="st0" d="M487,602.9c-1.2,1.1-2.4,2.1-3.8,2.9c-1.4,0.8-2.8,1.3-4.3,1.7c-1.5,0.3-2.9,0.5-4.3,0.5
				c-2.7,0-5.1-0.6-7.4-1.7c-2.3-1.1-4.2-2.7-5.9-4.6c-1.7-1.9-3-4.2-3.9-6.7c-1-2.5-1.4-5.1-1.4-7.9c0-2.5,0.4-5,1.2-7.4
				c0.8-2.4,2-4.6,3.5-6.6c1.6-2,3.5-3.5,5.8-4.7c2.3-1.2,4.9-1.8,7.9-1.8c1.3,0,2.7,0.2,4.1,0.5c1.4,0.3,2.7,0.8,4,1.5
				c1.3,0.7,2.5,1.6,3.7,2.7c1.1,1.1,2.1,2.5,2.9,4.1l3.8-2.4c-1.5-3.2-3.8-5.8-6.9-7.8c-3.1-2-6.9-3-11.3-3c-3.7,0-7.1,0.7-10,2.2
				c-2.9,1.5-5.4,3.4-7.4,5.7c-2,2.3-3.5,5-4.6,7.9c-1,3-1.6,5.9-1.6,8.9c0,3.1,0.5,6.1,1.6,9c1.1,3,2.6,5.6,4.5,8
				c1.9,2.4,4.2,4.3,6.9,5.9c2.7,1.5,5.7,2.4,8.9,2.6l-3.1,5.7c0.6-0.2,1.4-0.5,2.5-0.7c1.1-0.2,2.1-0.3,3.1-0.3
				c1.1,0,1.9,0.2,2.5,0.6c0.6,0.4,0.9,1,0.9,2c0,1.6-1.3,2.4-4,2.4c-1.2,0-2.4-0.1-3.5-0.4c-1.1-0.3-2-0.5-2.7-0.9l-1.2,2.2
				c0.9,0.4,2,0.7,3.1,0.9c1.2,0.3,2.4,0.4,3.8,0.4c2.3,0,4.1-0.4,5.3-1.3c1.2-0.8,1.8-2.1,1.8-3.6c0-1.4-0.5-2.5-1.4-3.2
				c-1-0.7-2.2-1.1-3.9-1.1c-0.4,0-0.8,0-1.3,0.1c-0.5,0-0.9,0.2-1.4,0.3l2-3.2c1.8-0.1,3.6-0.5,5.5-1c1.8-0.6,3.6-1.3,5.2-2.3
				c1.6-1,3.1-2.1,4.4-3.5c1.3-1.4,2.3-2.9,3.1-4.6l-4-2.1C489.2,600.3,488.2,601.7,487,602.9z"/>
			<path class="st0" d="M387.7,602.9c-1.2,1.1-2.4,2.1-3.8,2.9c-1.4,0.8-2.8,1.3-4.3,1.7c-1.5,0.3-2.9,0.5-4.3,0.5
				c-2.7,0-5.1-0.6-7.4-1.7c-2.3-1.1-4.2-2.7-5.9-4.6c-1.7-1.9-3-4.2-3.9-6.7c-1-2.5-1.4-5.1-1.4-7.9c0-2.5,0.4-5,1.2-7.4
				c0.8-2.4,2-4.6,3.5-6.6c1.6-2,3.5-3.5,5.8-4.7c2.3-1.2,4.9-1.8,7.9-1.8c1.3,0,2.7,0.2,4.1,0.5c1.4,0.3,2.7,0.8,4,1.5
				c1.3,0.7,2.5,1.6,3.7,2.7c1.1,1.1,2.1,2.5,2.9,4.1l3.8-2.4c-1.5-3.2-3.8-5.8-6.9-7.8c-3.1-2-6.9-3-11.3-3c-3.7,0-7.1,0.7-10,2.2
				c-2.9,1.5-5.4,3.4-7.4,5.7c-2,2.3-3.5,5-4.6,7.9c-1,3-1.6,5.9-1.6,8.9c0,3.2,0.6,6.3,1.7,9.3c1.1,3,2.7,5.8,4.8,8.2
				c2,2.4,4.5,4.3,7.3,5.8c2.8,1.5,6,2.2,9.4,2.2c1.9,0,3.9-0.3,5.8-0.8c2-0.5,3.8-1.3,5.6-2.2c1.8-1,3.4-2.2,4.8-3.6
				c1.4-1.4,2.6-3.1,3.4-4.9l-4-2.1C389.8,600.3,388.9,601.7,387.7,602.9z"/>
			<path class="st0" d="M530.2,549.7c-0.3,0.4-0.7,0.8-1.2,1.1c-0.5,0.3-1.2,0.5-2.1,0.5c-0.9,0-1.7-0.1-2.3-0.5
				c-0.7-0.3-1.3-0.6-2-1c-0.7-0.4-1.3-0.7-2.1-1c-0.7-0.3-1.6-0.5-2.5-0.5c-1.3,0-2.4,0.3-3.2,0.9c-0.8,0.6-1.5,1.2-2,2
				c-0.5,0.7-0.8,1.5-0.9,2.2c-0.2,0.7-0.2,1.2-0.2,1.4h2.9c0-0.1,0-0.3,0.1-0.7c0.1-0.3,0.2-0.7,0.5-1.1c0.3-0.4,0.6-0.8,1-1.1
				c0.4-0.3,1.1-0.5,1.9-0.5c0.7,0,1.4,0.1,2.1,0.5c0.6,0.3,1.3,0.6,2,1c0.7,0.3,1.4,0.7,2.2,0.9c0.8,0.3,1.7,0.4,2.8,0.4
				c1.4,0,2.5-0.3,3.5-0.9c0.9-0.6,1.6-1.2,2.1-2c0.5-0.7,0.8-1.5,1-2.2c0.2-0.7,0.3-1.2,0.3-1.4h-2.9c0,0.1,0,0.3-0.1,0.7
				C530.6,548.9,530.4,549.3,530.2,549.7z"/>
			<path class="st0" d="M203.7,590.9c1.4-0.9,2.5-2,3.5-3.4c1-1.3,1.7-2.8,2.2-4.5c0.5-1.7,0.8-3.4,0.8-5.2c0-1.9-0.4-3.8-1.1-5.7
				c-0.7-1.9-1.7-3.5-3-5c-1.3-1.5-2.9-2.7-4.6-3.6c-1.8-0.9-3.8-1.4-5.9-1.4h-20.9v49.6h4.9v-18.3h14.7l11.7,18.3h5.5l-12.1-19.1
				C200.8,592.5,202.4,591.8,203.7,590.9z M179.5,589.3v-22.6h15.8c1.4,0,2.6,0.3,3.9,0.9c1.2,0.6,2.3,1.4,3.2,2.4
				c0.9,1,1.6,2.2,2.2,3.6c0.5,1.4,0.8,2.8,0.8,4.3c0,1.5-0.2,2.9-0.7,4.3c-0.5,1.4-1.1,2.6-2,3.6c-0.8,1.1-1.9,1.9-3,2.5
				c-1.2,0.6-2.5,0.9-3.9,0.9H179.5z"/>
			<polygon class="st0" points="133.5,588.7 157.7,588.7 157.7,584.5 133.5,584.5 133.5,566.7 161.3,566.7 161.3,562.3 128.6,562.3 
				128.6,611.9 161.9,611.9 161.9,607.6 133.5,607.6 			"/>
			<path class="st0" d="M109.7,602.9c-1.2,1.1-2.4,2.1-3.8,2.9c-1.4,0.8-2.8,1.3-4.3,1.7c-1.5,0.3-2.9,0.5-4.3,0.5
				c-2.7,0-5.1-0.6-7.4-1.7c-2.3-1.1-4.2-2.7-5.9-4.6c-1.7-1.9-3-4.2-3.9-6.7c-1-2.5-1.4-5.1-1.4-7.9c0-2.5,0.4-5,1.2-7.4
				c0.8-2.4,2-4.6,3.5-6.6c1.6-2,3.5-3.5,5.8-4.7s4.9-1.8,7.9-1.8c1.3,0,2.7,0.2,4.1,0.5c1.4,0.3,2.7,0.8,4.1,1.5
				c1.3,0.7,2.5,1.6,3.7,2.7c1.1,1.1,2.1,2.5,2.9,4.1l3.8-2.4c-1.5-3.2-3.8-5.8-6.9-7.8c-3.1-2-6.9-3-11.3-3c-3.7,0-7.1,0.7-10,2.2
				c-2.9,1.5-5.4,3.4-7.4,5.7c-2,2.3-3.5,5-4.6,7.9c-1,3-1.6,5.9-1.6,8.9c0,3.2,0.6,6.3,1.7,9.3c1.1,3,2.7,5.8,4.8,8.2
				c2,2.4,4.5,4.3,7.3,5.8c2.8,1.5,6,2.2,9.4,2.2c1.9,0,3.8-0.3,5.8-0.8c2-0.5,3.9-1.3,5.6-2.2c1.8-1,3.4-2.2,4.8-3.6
				c1.4-1.4,2.6-3.1,3.4-4.9l-4-2.1C111.9,600.3,110.9,601.7,109.7,602.9z"/>
			<rect x="269" y="562.3" class="st0" width="4.9" height="49.6"/>
			<polygon class="st0" points="217.9,566.7 235.5,566.7 235.5,611.9 240.4,611.9 240.4,566.7 258.1,566.7 258.1,562.3 217.9,562.3 
							"/>
			<polygon class="st0" points="289.8,611.9 294.6,611.9 294.6,588.9 318,588.9 318,584.9 294.6,584.9 294.6,566.7 322.3,566.7 
				322.3,562.3 289.8,562.3 			"/>
			<rect x="760" y="562.3" class="st0" width="4.9" height="49.6"/>
			<path class="st0" d="M520.5,562.3l-20.7,49.6h5.2l6.4-15.5h22.3l6.4,15.5h5.2l-20.6-49.6H520.5z M512.4,592.6l10.1-24.5l10,24.5
				H512.4z"/>
			<path class="st0" d="M665.8,569.6c-2-2.2-4.4-4-7.4-5.3c-3-1.3-6.4-2-10.4-2h-16.8v49.6h16.8c3.6,0,6.9-0.6,9.8-1.8
				c2.9-1.2,5.4-2.9,7.5-5c2.1-2.2,3.7-4.8,4.8-7.8c1.1-3,1.7-6.5,1.7-10.2c0-3.4-0.5-6.6-1.5-9.6
				C669.3,574.5,667.8,571.8,665.8,569.6z M665.7,595.2c-0.8,2.5-2,4.7-3.6,6.5c-1.6,1.8-3.5,3.3-5.9,4.3c-2.4,1-5.1,1.6-8.1,1.6
				h-11.9v-40.9h11.9c3,0,5.7,0.5,8,1.5c2.3,1,4.3,2.4,5.9,4.2c1.6,1.8,2.8,4,3.7,6.5c0.8,2.5,1.3,5.2,1.3,8.2
				C666.9,590,666.5,592.7,665.7,595.2z"/>
			<rect x="684.6" y="562.3" class="st0" width="4.9" height="49.6"/>
			<path class="st0" d="M728.7,591.9h14.5c-0.4,2.1-1.1,4-2.1,5.9c-1,1.9-2.3,3.6-3.8,5.1c-1.5,1.5-3.3,2.7-5.3,3.6
				c-2,0.9-4.2,1.3-6.6,1.3c-2.7,0-5.2-0.6-7.5-1.8c-2.3-1.2-4.2-2.7-5.8-4.7c-1.6-1.9-2.9-4.1-3.7-6.6c-0.9-2.5-1.3-5-1.3-7.6
				c0-2.6,0.4-5.1,1.3-7.6c0.9-2.5,2.1-4.7,3.7-6.7c1.6-2,3.5-3.5,5.8-4.7c2.3-1.2,4.8-1.8,7.6-1.8c1.8,0,3.5,0.3,5.1,0.8
				c1.6,0.5,3,1.2,4.3,2.1c1.3,0.9,2.5,1.9,3.5,3c1,1.1,1.8,2.3,2.5,3.5l3.8-3.1c-2-3.2-4.6-5.8-7.9-7.7c-3.2-2-6.9-2.9-11.1-2.9
				c-3.4,0-6.6,0.7-9.5,2.1c-2.9,1.4-5.4,3.2-7.4,5.6c-2.1,2.3-3.7,5-4.9,8c-1.2,3-1.7,6.1-1.7,9.4c0,3.2,0.6,6.3,1.7,9.4
				c1.2,3,2.8,5.7,4.9,8.1c2.1,2.3,4.6,4.2,7.5,5.7c2.9,1.4,6.1,2.1,9.5,2.1c3.1,0,6-0.6,8.7-1.8c2.7-1.2,5-2.8,6.9-4.8
				c2-2,3.6-4.3,4.8-7c1.2-2.7,2-5.4,2.2-8.3v-0.6c0-0.3,0-0.6,0-0.9c0-0.3,0-0.6,0-0.8v-0.5h-19.8V591.9z"/>
			<polygon class="st0" points="877.6,562.3 872.7,562.3 872.7,611.9 906.2,611.9 906.2,607.6 877.6,607.6 			"/>
			<path class="st0" d="M590.8,570c-2-2.4-4.5-4.3-7.3-5.8c-2.9-1.5-6-2.2-9.5-2.2c-3.3,0-6.4,0.7-9.2,2.1c-2.8,1.4-5.3,3.2-7.4,5.5
				c-2.1,2.3-3.7,5-4.9,8c-1.2,3-1.8,6.2-1.8,9.5c0,3.2,0.6,6.3,1.7,9.3c1.1,3,2.7,5.7,4.7,8.1c2.1,2.3,4.5,4.2,7.4,5.7
				c2.9,1.4,6,2.1,9.5,2.1c3.3,0,6.4-0.7,9.2-2.1c2.8-1.4,5.3-3.2,7.4-5.5c2.1-2.3,3.7-5,4.9-8c1.2-3,1.8-6.2,1.8-9.5
				c0-3.1-0.6-6.2-1.7-9.2C594.4,575,592.9,572.3,590.8,570z M591.1,594.7c-0.9,2.5-2.1,4.7-3.7,6.6c-1.6,2-3.5,3.5-5.8,4.7
				c-2.3,1.2-4.8,1.8-7.6,1.8c-2.7,0-5.2-0.6-7.5-1.7c-2.2-1.1-4.2-2.7-5.8-4.6c-1.6-1.9-2.9-4.1-3.8-6.6c-0.9-2.5-1.3-5.1-1.3-7.8
				c0-2.6,0.4-5.1,1.3-7.5c0.9-2.5,2.1-4.7,3.7-6.6c1.6-2,3.5-3.5,5.8-4.7c2.3-1.2,4.8-1.8,7.6-1.8c2.7,0,5.2,0.6,7.4,1.7
				c2.2,1.1,4.2,2.7,5.8,4.6c1.6,1.9,2.9,4.1,3.8,6.6c0.9,2.5,1.4,5.1,1.4,7.8C592.3,589.7,591.9,592.2,591.1,594.7z"/>
			<path class="st0" d="M837.4,562.3l-20.7,49.6h5.2l6.4-15.5h22.3l6.4,15.5h5.2l-20.6-49.6H837.4z M829.3,592.6l10.1-24.5l10,24.5
				H829.3z"/>
			<polygon class="st0" points="775.8,566.7 793.5,566.7 793.5,611.9 798.3,611.9 798.3,566.7 816,566.7 816,562.3 775.8,562.3 			
				"/>
			<rect x="208.8" y="353.8" class="st0" width="38.6" height="136.3"/>
			<rect x="208.8" y="291.5" class="st0" width="38.6" height="38.6"/>
			<path class="st0" d="M881.2,381.4c-8.2-8.4-18-15.1-29.6-20.1c-11.6-5.1-24.5-7.6-38.7-7.6c-14.5,0-27.6,2.5-39.2,7.4
				c-11.7,4.9-21.6,11.7-29.9,20.3c-8.3,8.6-14.7,18.5-19.3,29.9c-4.5,11.3-6.8,23.3-6.8,35.9c0,12.6,2.3,24.5,6.8,35.7
				c4.6,11.2,11,21.1,19.3,29.6c8.3,8.5,18.3,15.1,29.9,20.1c11.7,4.9,24.6,7.4,38.9,7.4c19.4,0,36.4-4.3,50.9-12.9
				c14.6-8.6,25-19.6,31.3-33.2l-32.9-9.3c-1.9,4.1-4.5,7.9-7.7,11.3c-3.3,3.4-7,6.4-11.2,8.8c-4.2,2.4-8.8,4.2-13.8,5.5
				c-5.1,1.3-10.1,1.9-15.3,1.9c-7,0-13.7-1.3-20.1-3.8c-6.4-2.5-12.1-6.1-17.1-10.8c-5.1-4.7-9.1-10.2-12.3-16.6
				c-3.2-6.4-5.1-13.7-5.8-21.6h146.7c0.2-1.6,0.4-3.6,0.7-6c0.2-2.4,0.4-5,0.4-7.8c0-12.1-2.2-23.8-6.5-34.9
				C895.6,399.5,889.4,389.8,881.2,381.4z M757.6,433.2c0.7-7.6,2.6-14.6,5.6-21c3-6.4,7-11.9,11.9-16.3c4.9-4.5,10.6-8,17-10.5
				c6.4-2.5,13.2-3.8,20.5-3.8c7.2,0,14.1,1.2,20.7,3.8c6.5,2.5,12.3,6,17.1,10.5c4.9,4.4,8.9,9.9,12.1,16.3
				c3.2,6.4,5.1,13.4,5.8,21H757.6z"/>
			<path class="st0" d="M709.3,464.9c-2.8-5.4-7.1-10.1-13-14.1c-5.8-4-13.3-7.5-22.2-10.5c-9-3-19.7-6-32-8.9
				c-7.5-1.8-13.7-3.5-18.7-5c-5-1.5-9.1-3.1-12.3-5c-3.2-1.8-5.4-4-6.8-6.5c-1.4-2.5-2.1-5.6-2.1-9.3c0-8.7,3.3-15.1,10-19.1
				c6.7-4,14.9-6,24.7-6c19.1,0,37.2,6.6,54.3,19.9l16.5-22.7c-9.3-7.8-20-13.7-31.9-17.9c-11.9-4.1-24.7-6.2-38.5-6.2
				c-10,0-19.4,1.3-28,3.8c-8.6,2.5-16.2,6.2-22.6,11.2c-6.4,4.9-11.4,10.9-15.1,18c-3.6,7.1-5.4,15.2-5.4,24.4
				c0,6.9,1.2,12.7,3.5,17.5c2.3,4.8,6.1,9.1,11.2,12.7c5.1,3.7,11.8,6.9,20,9.6c8.2,2.8,18,5.6,29.4,8.6c15.9,4.1,27.5,7.9,35,11.3
				c7.5,3.4,11.2,8.9,11.2,16.5c0,8-3.3,14.2-10,18.6c-6.7,4.4-15.7,6.5-27.1,6.5c-11.2,0-22.2-2-32.9-6c-10.7-4-21.6-9.9-32.6-17.7
				l-15.4,24.1c10.5,8.7,23,15.4,37.6,20.1c14.6,4.7,29.2,7,43.9,7c22.6,0,40.5-5,53.7-14.9c13.2-10,19.8-23.5,19.8-40.7
				C713.5,476.8,712.1,470.3,709.3,464.9z"/>
			<path class="st0" d="M381.4,399.8c5.5,7.8,8.2,20.4,8.2,37.6V540h38.5v-59.4l26.5-25l58.5,84.4h41l-74.9-106.1l74.3-80.2h-42
				l-83.3,88.6v-14c0-10-0.8-19.5-2.5-28.5c-1.6-9-4.5-16.9-8.6-23.8c-4.1-6.9-9.6-12.3-16.6-16.3c-7-4-16-6-27-6
				c-16.1,0-30.8,3.6-44.1,10.7c-13.3,7.1-23.5,16.9-30.5,29.2v-39.9h-35V540h38.5V431.1c2.1-6.3,5.1-12.1,8.9-17.3
				c3.9-5.3,8.2-9.8,13.1-13.7c4.9-3.9,10.2-6.8,15.8-8.9c5.6-2.1,11.2-3.2,16.8-3.2C367.8,388.1,376,392,381.4,399.8z"/>
			<polygon class="st0" points="247.4,505.4 114.1,505.4 114.1,291.5 74.8,291.5 74.8,540 247.4,540 			"/>
			<path class="st0" d="M924.9,363.4c-0.8-2-1.9-3.7-3.3-5.1c-1.4-1.4-3.1-2.5-5-3.4c-1.9-0.8-4-1.2-6.2-1.2c-2.3,0-4.4,0.4-6.3,1.2
				c-1.9,0.8-3.6,1.9-5,3.4c-1.4,1.4-2.5,3.1-3.3,5.1c-0.8,2-1.2,4.1-1.2,6.4c0,2.3,0.4,4.5,1.2,6.4c0.8,2,1.9,3.7,3.3,5.1
				c1.4,1.4,3.1,2.6,5,3.4c1.9,0.8,4,1.2,6.3,1.2c2.2,0,4.3-0.4,6.2-1.2c1.9-0.8,3.6-2,5-3.4c1.4-1.4,2.5-3.1,3.3-5.1
				c0.8-2,1.2-4.1,1.2-6.4C926.1,367.5,925.7,365.4,924.9,363.4z M923.4,375.9c-0.7,1.8-1.7,3.3-3,4.6c-1.3,1.3-2.8,2.3-4.5,3
				c-1.7,0.7-3.6,1.1-5.6,1.1c-2,0-3.9-0.4-5.7-1.1c-1.7-0.7-3.2-1.8-4.5-3.1c-1.2-1.3-2.2-2.9-2.9-4.7c-0.7-1.8-1.1-3.7-1.1-5.8
				c0-2.1,0.4-4,1.1-5.8c0.7-1.8,1.7-3.3,2.9-4.6c1.2-1.3,2.7-2.3,4.5-3.1c1.7-0.7,3.6-1.1,5.7-1.1c2.1,0,3.9,0.4,5.7,1.1
				c1.7,0.7,3.2,1.8,4.5,3.1c1.3,1.3,2.3,2.9,3,4.6c0.7,1.8,1.1,3.7,1.1,5.8C924.5,372.1,924.2,374.1,923.4,375.9z"/>
			<path class="st0" d="M916.5,370.1c0.8-1.1,1.2-2.4,1.2-3.9c0-0.8-0.1-1.5-0.4-2.3c-0.3-0.8-0.7-1.4-1.2-2.1
				c-0.5-0.6-1.1-1.1-1.8-1.5c-0.7-0.4-1.5-0.6-2.3-0.6h-8.1V380h2.3v-7.5h5l4.5,7.5h2.5l-4.7-7.8
				C914.7,371.9,915.7,371.2,916.5,370.1z M906.1,370.4v-8.5h5.7c1.1,0,2,0.4,2.7,1.2c0.7,0.8,1,1.8,1,3.1c0,1.2-0.3,2.2-0.9,3.1
				c-0.6,0.8-1.5,1.2-2.6,1.2H906.1z"/>
		</g>
		<rect x="478.6" y="420.2" class="st1" width="130.4" height="32.2"/>
	</g>
	<g>
		<path class="st0" d="M290.3,668.5c-0.4-5.6-4.4-8.6-11.6-8.6c-5.9,0-9.5,2.6-9.5,6.8c0,4,2.3,5.6,10.4,7.2l8.6,1.7
			c10.2,2,14.6,6.5,14.6,15.2c0,11.2-8.4,17.8-22.6,17.8c-14,0-22.1-6.4-22.8-18.2h11c0.4,5.9,4.7,9.1,12.4,9.1
			c6.9,0,11.1-2.8,11.1-7.4c0-4.5-2.8-6.6-10.3-8l-7.7-1.5c-11.2-2.1-15.5-6.3-15.5-14.8c0-10.7,7.6-16.9,20.8-16.9
			c13.9,0,21.5,6.3,21.6,17.7H290.3z"/>
		<path class="st0" d="M342.8,706.8h-11.5c-1-1.2-1.2-2-1.2-4.1c-3.8,3.9-7.9,5.8-12.4,5.8c-7.5,0-12.4-4.9-12.4-12.2
			c0-7.3,3.9-11.5,12-12.8l4.2-0.8c5.2-0.8,5.2-0.8,6.6-1.6c1.1-0.7,1.8-1.8,1.8-3.2c0-2.7-2-4.1-6.1-4.1c-5.2,0-6.9,1.4-7.5,5.6
			h-10.2c0.7-9.4,6.4-14.1,17.4-14.1c11,0,16.7,4.2,16.7,12.5v22.7c0,2,0.6,3.2,2.4,5V706.8z M337.2,650.3c-0.3,6.4-2.7,9.6-7.2,9.6
			c-1.1,0-2.6-0.3-4.1-0.9l-5.4-2c-0.8-0.3-1.6-0.5-2.3-0.5c-1.8,0-2.6,1-3,3.4h-4.8c0.3-5.9,2.9-9.4,7.2-9.4c1.4,0,1.4,0,4.2,1
			l5.4,1.9c0.5,0.2,2,0.5,2.5,0.5c1.6,0,2.5-1.2,2.8-3.6H337.2z M330.1,687.6c-1.2,0.6-1.7,0.8-4.5,1.3l-3.6,0.7
			c-4.4,0.9-6,2.4-6,5.6c0,3,2.2,4.9,5.7,4.9c5.4,0,8.4-3.5,8.4-9.6V687.6z"/>
		<path class="st0" d="M386.1,687.3c0,13.1-7.7,21.3-20.2,21.3c-12.5,0-20.2-8.2-20.2-21.6c0-13.4,7.6-21.6,20.1-21.6
			C378.6,665.4,386.1,673.4,386.1,687.3z M356.3,687c0,7.9,3.9,13.1,9.6,13.1c5.7,0,9.6-5.3,9.6-12.9c0-8-3.8-13.2-9.6-13.2
			C360.2,673.9,356.3,679.1,356.3,687z"/>
		<path class="st0" d="M446.7,670.4c-1.5-6.7-5.2-9.9-11.8-9.9c-8.9,0-14.3,7.2-14.3,19.4c0,12,5.1,19.1,13.9,19.1
			c7,0,11.4-4,12.2-11h11c-0.7,12.6-9.7,20.5-23.5,20.5c-15.3,0-24.9-11-24.9-28.8c0-17.8,9.7-28.9,25.2-28.9c8.2,0,15,3.1,19.3,8.7
			c2.3,3.1,3.3,6.1,3.7,10.9H446.7z"/>
		<path class="st0" d="M498.1,706.8h-11.5c-1-1.2-1.2-2-1.2-4.1c-3.8,3.9-7.9,5.8-12.4,5.8c-7.5,0-12.4-4.9-12.4-12.2
			c0-7.3,3.9-11.5,12-12.8l4.2-0.8c5.2-0.8,5.2-0.8,6.6-1.6c1.1-0.7,1.8-1.8,1.8-3.2c0-2.7-2-4.1-6.1-4.1c-5.2,0-6.9,1.4-7.5,5.6
			h-10.2c0.7-9.4,6.4-14.1,17.4-14.1s16.7,4.2,16.7,12.5v22.7c0,2,0.6,3.2,2.4,5V706.8z M485.4,687.6c-1.2,0.6-1.7,0.8-4.5,1.3
			l-3.6,0.7c-4.4,0.9-6,2.4-6,5.6c0,3,2.2,4.9,5.7,4.9c5.4,0,8.4-3.5,8.4-9.6V687.6z"/>
		<path class="st0" d="M513.8,666v8c2.3-5.5,6.5-8.7,11.3-8.7c0.5,0,0.7,0,1.3,0.1v10.7c-1.4-0.2-2.2-0.3-3.3-0.3
			c-6.2,0-9.3,3.1-9.3,9.3v21.7h-10.6V666H513.8z"/>
		<path class="st0" d="M540.9,706.8h-10.6v-55h10.6V706.8z"/>
		<path class="st0" d="M587.2,687.3c0,13.1-7.7,21.3-20.2,21.3c-12.5,0-20.2-8.2-20.2-21.6c0-13.4,7.6-21.6,20.1-21.6
			C579.7,665.4,587.2,673.4,587.2,687.3z M557.4,687c0,7.9,3.9,13.1,9.6,13.1c5.7,0,9.6-5.3,9.6-12.9c0-8-3.8-13.2-9.6-13.2
			C561.3,673.9,557.4,679.1,557.4,687z"/>
		<path class="st0" d="M616.1,679.2c-0.1-3.7-2.6-5.5-7.6-5.5c-3.7,0-6.1,1.5-6.1,3.8c0,1.7,0.8,2.3,3.7,3.2l13.4,3.9
			c5.4,1.6,8,5,8,10.3c0,4-1.8,7.8-4.8,10.2c-3,2.4-7.3,3.6-13,3.6c-12.4,0-19-4.6-19.3-13.6h10.3c0.5,2.2,0.9,3,2,3.9
			c1.4,1,3.5,1.4,6.3,1.4c4.9,0,7.9-1.5,7.9-4c0-1.7-0.9-2.5-3.5-3.3l-12.6-3.9c-3.9-1.3-5.2-2-6.6-3.4c-1.4-1.6-2.3-3.9-2.3-6.6
			c0-8.4,6.4-13.6,16.8-13.6c10.9,0,17.6,5.2,17.7,13.8H616.1z"/>
		<path class="st0" d="M648.8,652.9l-15.6,55h-5.1l15.6-55H648.8z"/>
		<path class="st0" d="M682.2,668.5c-0.4-5.6-4.4-8.6-11.6-8.6c-5.9,0-9.5,2.6-9.5,6.8c0,4,2.3,5.6,10.4,7.2l8.6,1.7
			c10.2,2,14.6,6.5,14.6,15.2c0,11.2-8.4,17.8-22.6,17.8c-14,0-22.1-6.4-22.8-18.2h11c0.4,5.9,4.7,9.1,12.4,9.1
			c6.9,0,11.1-2.8,11.1-7.4c0-4.5-2.8-6.6-10.3-8l-7.7-1.5c-11.2-2.1-15.5-6.3-15.5-14.8c0-10.7,7.6-16.9,20.8-16.9
			c13.9,0,21.5,6.3,21.6,17.7H682.2z"/>
		<path class="st0" d="M712.3,706.8h-11.3v-55h24.3c11.5,0,17.7,6,17.7,17.1c0,11.2-6.5,18.3-16.6,18.3h-14.1V706.8z M722.8,677.7
			c6,0,8.8-2.6,8.8-8.3c0-5.6-2.8-8.2-8.8-8.2h-10.6v16.5H722.8z"/>
	</g>
</g>
</svg>
